<svg xmlns="http://www.w3.org/2000/svg" viewBox="0 0 1200 800" width="1200" height="800" fill="none">
  <title>Regelleistung</title>
  <desc>Batterie stabilisiert Netzfrequenz – Regelleistung</desc>
  <defs>
    <linearGradient id="glow" x1="0" y1="0" x2="1" y2="0">
      <stop offset="0" stop-color="#3B70B8"/>
      <stop offset="1" stop-color="#00C781"/>
    </linearGradient>
    <filter id="softGlow" x="-20%" y="-20%" width="140%" height="140%">
      <feGaussianBlur stdDeviation="6" result="b"/>
      <feMerge>
        <feMergeNode in="b"/>
        <feMergeNode in="SourceGraphic"/>
      </feMerge>
    </filter>
  </defs>

  <!-- faint grid -->
  <g opacity=".15">
    <path d="M80 160h1040M80 240h1040M80 320h1040M80 400h1040M80 480h1040M80 560h1040M80 640h1040" stroke="#fff"/>
    <path d="M160 120v560M320 120v560M480 120v560M640 120v560M800 120v560M960 120v560" stroke="#fff"/>
  </g>

  <!-- sine-ish waveform -->
  <path d="M80 400c60-120 120-120 180 0s120 120 180 0 120-120 180 0 120 120 180 0 120-120 180 0 120 120 180 0"
        stroke="url(#glow)" stroke-width="6" stroke-linecap="round" filter="url(#softGlow)"/>

  <!-- battery block -->
  <g transform="translate(860,270)">
    <rect x="0" y="0" width="200" height="140" rx="14" fill="#0F172A" stroke="rgba(255,255,255,.25)"/>
    <rect x="200" y="42" width="12" height="56" rx="4" fill="#0F172A" stroke="rgba(255,255,255,.25)"/>
    <rect x="20" y="20" width="160" height="100" rx="8" fill="none" stroke="#3B70B8" stroke-width="2"/>
    <path d="M50 70h40M130 70h-40" stroke="#00C781" stroke-width="6" stroke-linecap="round"/>
    <circle cx="160" cy="70" r="6" fill="#00C781"/>
  </g>

  <!-- connection line from wave to battery -->
  <path d="M760 400C820 370 840 330 880 310" stroke="url(#glow)" stroke-width="4" stroke-linecap="round"/>

</svg>
