<svg xmlns="http://www.w3.org/2000/svg" viewBox="0 0 1200 800" width="1200" height="800" fill="none">
  <title>Erzeugungsflexibilität</title>
  <desc>Speichern bei Überschuss, Einspeisen bei Bedarf – Flexibilität</desc>
  <defs>
    <linearGradient id="g2" x1="0" y1="0" x2="1" y2="0">
      <stop offset="0" stop-color="#3B70B8"/>
      <stop offset="1" stop-color="#00C781"/>
    </linearGradient>
    <filter id="glow2" x="-20%" y="-20%" width="140%" height="140%">
      <feGaussianBlur stdDeviation="5" result="b"/>
      <feMerge><feMergeNode in="b"/><feMergeNode in="SourceGraphic"/></feMerge>
    </filter>
  </defs>

  <!-- background bars (demand profile) -->
  <g opacity=".18" stroke="#fff">
    <rect x="150" y="520" width="40" height="140" fill="none"/>
    <rect x="210" y="460" width="40" height="200" fill="none"/>
    <rect x="270" y="420" width="40" height="240" fill="none"/>
    <rect x="330" y="500" width="40" height="160" fill="none"/>
    <rect x="390" y="560" width="40" height="100" fill="none"/>
  </g>

  <!-- battery -->
  <g transform="translate(780,260)">
    <rect x="0" y="0" width="220" height="160" rx="16" fill="#0F172A" stroke="rgba(255,255,255,.25)"/>
    <rect x="220" y="52" width="14" height="56" rx="4" fill="#0F172A" stroke="rgba(255,255,255,.25)"/>
    <rect x="20" y="20" width="180" height="120" rx="10" fill="none" stroke="#3B70B8" stroke-width="2"/>
    <path d="M55 80h50M165 80h-50" stroke="#00C781" stroke-width="8" stroke-linecap="round"/>
    <circle cx="170" cy="80" r="7" fill="#00C781"/>
  </g>

  <!-- arrows (store left -> battery; discharge battery -> right) -->
  <path d="M480 340 C560 320, 640 320, 720 320" stroke="url(#g2)" stroke-width="6" fill="none" marker-end="url(#arrowHead)" filter="url(#glow2)"/>
  <path d="M720 420 C640 420, 560 420, 480 440" stroke="url(#g2)" stroke-width="6" fill="none" marker-end="url(#arrowHead)" filter="url(#glow2)" transform="scale(-1,1) translate(-1200,0)"/>

  <!-- arrowhead -->
  <defs>
    <marker id="arrowHead" markerWidth="14" markerHeight="14" refX="10" refY="7" orient="auto">
      <path d="M0,0 L14,7 L0,14 z" fill="#00C781"/>
    </marker>
  </defs>

  <!-- small bar chart on the right (sell when high) -->
  <g transform="translate(960,520)" opacity=".9">
    <rect x="0" y="-60" width="16" height="60" fill="#3B70B8"/>
    <rect x="28" y="-100" width="16" height="100" fill="#00C781"/>
    <rect x="56" y="-80" width="16" height="80" fill="#3B70B8"/>
    <rect x="84" y="-130" width="16" height="130" fill="#00C781"/>
  </g>
</svg>
